<svg width="49" height="64" viewBox="0 0 49 64" fill="none" xmlns="http://www.w3.org/2000/svg">
<path d="M25.9353 54.2981C25.9329 51.4531 25.9455 48.6057 25.8002 45.7647C25.7818 45.4077 25.5563 45.0417 25.1759 44.9606C24.9041 44.9042 24.6336 44.8452 24.3631 44.7834C23.6946 44.5205 23.2427 45.2235 23.3632 45.7814C23.3605 45.7894 23.3543 45.7947 23.352 45.8031C22.6838 48.1153 22.8137 50.5492 22.7991 52.9308C22.7957 53.4944 22.7838 54.0596 22.777 54.6248C20.6407 55.1199 19.0699 57.0751 19.2632 59.3749C19.4754 61.9023 21.7662 64.0941 24.3597 63.9977C26.6811 63.9116 28.6489 62.0955 29.2899 59.9889C30.0333 57.5435 28.4159 54.8874 25.9353 54.2981Z" fill="#FF9E92"/>
<path d="M44.9373 29.643C42.2318 28.6391 40.0544 27.7469 37.9787 25.6252C35.6846 23.2803 34.2284 20.2097 32.3296 17.5716C29.2659 13.3152 25.5156 9.39847 20.4065 7.62513C18.1532 6.84305 15.6559 6.76731 13.2335 7.21374C12.8834 7.24343 12.5545 7.31416 12.2486 7.42694C11.5127 7.60678 10.7866 7.83099 10.082 8.09958C10.0763 8.06855 10.0701 8.03685 10.0637 8.00515C9.87791 7.01655 9.49992 6.0533 9.04232 5.1351C8.90555 4.85483 8.75891 4.5749 8.60105 4.29997C8.45271 4.03339 8.30199 3.7698 8.14923 3.51356C7.35855 2.18763 6.01262 0.0853069 4.23359 0.00256173C2.16741 -0.0938631 1.42335 2.55432 1.57474 4.14416C1.82209 6.73828 4.1186 8.58837 5.63974 10.5676C-2.49093 16.8485 -0.878609 27.222 4.48026 34.7155C6.26201 37.2069 7.88964 39.7236 8.615 42.7161C9.25904 45.3739 8.72897 48.1506 8.50919 50.8274C8.30505 53.3175 8.85758 56.7671 11.5341 56.8985C13.4377 57.755 16.2785 57.6793 18.3995 56.5826C18.9214 56.3123 18.7081 55.3861 18.0868 55.4508C16.3177 55.636 14.2831 55.8195 12.5487 55.3858C9.29953 54.5723 14.7605 49.5262 15.7223 48.6657C19.9598 44.8738 25.0339 41.7412 29.8225 38.6599C32.9104 36.6727 36.1789 35.0041 39.7516 34.0432C41.8824 33.4696 47.8741 32.6218 46.0379 36.4475C44.6134 39.415 41.4466 42.0291 39.0072 44.1965C36.1109 46.7703 32.8798 48.9573 29.4833 50.8421C28.3422 51.4754 29.3659 53.197 30.5104 52.5644C34.9718 50.0971 39.0205 47.0766 42.6755 43.5602C44.4773 41.8266 48.097 38.6726 48.5355 35.6941C49.9427 32.6115 47.983 30.7731 44.9373 29.643ZM7.83759 8.45691C6.37769 8.22503 5.13961 7.02689 4.32273 5.88581C3.87058 5.25454 3.50177 4.45145 3.62902 3.66437C3.73585 3.00608 4.26319 2.64674 4.84566 2.94769C6.558 3.83253 7.9434 6.79067 8.26933 8.65077C8.1625 8.55768 8.02301 8.48661 7.83759 8.45691ZM31.0691 19.2505C31.4352 19.763 31.7819 20.2801 32.1275 20.796C32.1262 20.8043 32.1214 20.811 32.1204 20.8196C32.116 20.8667 32.1217 20.9131 32.1211 20.9598C31.5879 20.094 31.0548 19.2612 30.504 18.4684C30.6959 18.731 30.8844 18.9922 31.0691 19.2505ZM19.3749 11.0624C19.395 11.0737 19.414 11.0827 19.4341 11.0938C21.1512 12.0457 22.8064 13.1801 24.3439 14.4396C26.5206 17.0124 28.613 19.6529 30.7751 22.2337C31.7172 23.8412 32.6671 25.447 33.8967 26.838C34.0573 27.0195 34.223 27.1924 34.3917 27.3602C33.828 27.6221 33.288 27.921 32.7423 28.2834C30.7799 29.586 29.0223 27.1827 27.7414 25.9081C25.7616 23.9379 23.9377 21.7098 22.3958 19.391C21.4095 17.9072 20.5 16.3741 19.6855 14.7933C19.2378 13.9244 18.8642 13.0276 18.6166 12.0847C18.391 11.2265 18.7918 11.0817 19.3749 11.0624Z" fill="#FF9E92"/>
</svg>
