<svg width="75" height="64" viewBox="0 0 75 64" fill="none" xmlns="http://www.w3.org/2000/svg">
<path d="M58.8793 30.3814C61.061 26.6158 61.7275 21.7727 60.4772 17.6058C59.4386 14.1469 56.8733 11.6007 53.8399 10.1383C50.6602 8.60605 45.0438 8.06203 42.8181 11.5917C36.5219 14.2234 34.738 22.1552 36.8791 28.6033C39.3494 36.0426 46.7776 38.6985 53.3112 35.6589C54.1327 35.2764 54.8926 34.7929 55.5962 34.2354C58.1914 37.8526 60.7195 41.4399 63.7013 44.7273C65.4282 46.6314 69.9347 51.8811 72.8154 49.3794C79.8448 43.2748 62.8901 32.6635 58.8793 30.3814ZM52.2374 33.6971C46.667 36.6888 40.6954 33.3613 38.7438 27.4064C36.9602 21.9641 38.9 16.3226 43.3675 13.3432C43.4712 13.3293 43.5765 13.2982 43.6821 13.2331C47.3905 10.9384 50.7478 10.74 54.5213 13.1329C56.8637 14.6182 58.2488 17.1988 58.8092 19.9737C59.9221 25.4848 56.7868 31.2535 52.2374 33.6971ZM71.3121 47.8262C68.8322 48.6709 64.2085 42.2359 62.8495 40.6369C60.8045 38.2309 58.8785 35.5157 56.5525 33.3916C56.9503 33.0034 57.3182 32.5821 57.6665 32.1432C57.6845 32.1562 57.6987 32.1714 57.7182 32.1837C60.5752 34.0243 63.418 35.8479 66.1004 37.9777C67.2087 38.8576 75.4749 46.4085 71.3121 47.8262Z" fill="#FF9E92"/>
<path d="M55.9843 21.1231C55.3573 19.6395 53.8811 17.6667 52.2182 17.9113C51.673 17.9915 51.7412 18.7568 52.0823 19.0211C52.6745 19.4792 53.5783 20.71 54.045 21.5976C54.3941 22.2619 54.5675 22.9818 54.5442 23.7402C54.522 24.4429 53.9764 24.96 53.914 25.6815C53.8597 26.3033 54.4883 26.6518 54.9794 26.5487C57.1837 26.0848 56.6252 22.6399 55.9843 21.1231Z" fill="#FF9E92"/>
<path d="M56.1286 39.5057C55.8147 38.4774 54.2249 38.5702 54.2115 39.819C54.195 41.344 54.4278 42.9163 54.6984 44.4519C51.7748 42.1539 47.2775 42.2402 43.9148 42.5825C39.956 42.9854 35.8771 43.9422 32.0045 45.1354C32.2028 37.8421 31.7675 30.3837 31.5666 23.0851C31.4942 20.4574 31.2553 17.833 31.116 15.2086C31.0609 14.1676 31.2649 12.7781 31.137 11.5833C31.338 11.4021 31.4544 11.1202 31.4203 10.7615C35.1321 7.86304 38.8237 5.69307 43.4152 8.52814C44.5491 9.22801 45.466 7.46136 44.4247 6.68254C39.7049 3.15414 34.5663 5.15477 30.9096 9.09712C29.3795 5.49591 25.7607 3.47115 22.4291 1.98633C19.5537 0.705208 12.5194 -1.87789 10.4162 2.22807C9.53877 3.94073 9.71142 6.08329 9.59007 7.97634C9.57399 8.2279 9.56519 8.47987 9.55064 8.73184C6.05282 7.47567 4.59543 11.3456 4.12686 14.9423C3.22723 14.7493 2.33526 14.7959 1.40846 14.7611C0.912326 14.7423 0.526062 15.2103 0.514194 15.7166C0.372168 21.7676 1.34836 27.756 1.11292 33.8131C0.878638 39.8387 0.366809 45.8356 0.718237 51.8698C0.751925 52.4515 1.10986 52.7669 1.62552 52.8393C7.47231 53.6598 13.1767 51.39 18.9768 51.0342C23.5228 50.7556 29.5499 48.8331 33.8715 50.9389C34.061 51.0313 34.2455 51.0546 34.4182 51.0346C34.4714 51.6616 34.5602 52.2822 34.613 52.8429C34.9078 56.0008 35.4411 59.1217 35.5356 62.2988C35.5552 62.9606 36.4345 63.5218 36.8893 62.898C37.5064 62.0521 38.0994 61.1935 38.6705 60.317C39.2689 61.4185 39.8316 62.5413 40.4644 63.6228C40.8583 64.2953 41.8085 64.0106 41.8365 63.2257C41.9823 59.143 41.704 55.0726 41.5405 50.9973C46.5892 52.4376 52.0149 52.4036 57.109 53.5653C57.6071 53.679 58.1821 53.4152 58.3038 52.8405C58.6614 51.1495 58.432 40.0428 56.1286 39.5057ZM3.95918 17.0194C3.89028 16.9389 3.80835 16.8771 3.71533 16.8313C3.70691 16.6906 3.67207 16.5699 3.61771 16.4676C3.73945 16.4652 3.86042 16.4562 3.98254 16.4586C3.97105 16.6509 3.96531 16.8346 3.95918 17.0194ZM23.8669 43.0902C17.906 42.1318 12.5944 43.6043 6.97809 45.4417C6.0176 37.5603 6.31812 29.6032 6.01913 21.6776C5.93262 19.3903 5.81394 17.1201 6.00459 14.8339C6.24079 12.0034 7.24492 10.8053 9.4534 10.6008C9.29798 14.049 9.25242 17.5033 9.22677 20.954C9.20113 24.3438 9.2084 27.6967 8.94885 31.077C8.71341 34.1403 8.40984 37.3038 9.37492 40.2592C9.40517 40.3516 9.45034 40.4285 9.5024 40.4968C9.46642 40.7819 9.58586 41.0695 9.92542 41.1308C13.1281 41.7105 16.405 41.571 19.6345 41.8553C21.6956 42.0365 23.3873 42.493 24.917 43.2554C24.5009 43.1879 24.1399 43.1343 23.8669 43.0902ZM10.8151 39.8256C10.6597 35.5466 11.1742 31.331 11.3694 27.0631C11.6202 21.5794 11.3832 16.0631 11.5911 10.5721C11.6718 8.4361 11.6791 6.20969 11.9632 4.09003C12.39 0.902775 18.0178 2.85186 19.6617 3.35785C23.3356 4.48885 27.3548 6.58355 29.1946 10.3226C28.5898 11.2016 28.7919 12.4713 28.8118 13.5904C28.8639 16.4918 29.1414 19.3898 29.2869 22.2871C29.6506 29.5296 29.1709 36.8625 30.0885 44.0698C26.0762 38.7236 16.5853 39.4354 10.8151 39.8256ZM39.3684 58.4141C39.061 57.8787 38.3731 57.9053 38.0607 58.4141C37.7277 58.9557 37.3758 59.4801 37.0141 59.9963C36.8782 58.1707 36.6347 56.3554 36.3928 54.5401C36.1455 52.6846 36.3752 49.9809 35.6581 48.1795C37.1278 48.0326 38.566 47.7688 39.2432 47.7389C39.4607 47.7291 39.6804 47.7185 39.8994 47.7074C39.9331 51.9017 40.3017 56.0817 40.3699 60.2728C40.046 59.6486 39.7191 59.0244 39.3684 58.4141ZM39.2432 45.9555C39.1112 45.9616 38.5067 45.9915 37.6867 46.0512C38.9975 45.733 40.3029 45.4147 41.6003 45.1734C46.3419 44.2927 50.1697 44.6016 54.3489 46.9572C54.3703 47.0497 54.3922 47.1413 54.4124 47.2338C49.6724 45.1857 44.2907 45.7309 39.2432 45.9555Z" fill="#FF9E92"/>
</svg>
