<svg width="70" height="64" viewBox="0 0 70 64" fill="none" xmlns="http://www.w3.org/2000/svg">
<path d="M23.7432 1.54103C20.544 -1.00539 16.2315 -0.275126 13.6166 2.84174C9.39306 7.87564 12.4207 17.5716 19.2729 15.3476C21.8363 15.2162 24.3719 13.7114 25.7739 11.4803C27.77 8.30288 26.463 3.70611 23.7432 1.54103Z" fill="#FF9E92"/>
<path d="M43.5974 22.7142C43.5118 21.9578 42.8264 21.2968 42.0913 21.8565C40.3063 23.2154 38.9518 25.257 37.3794 26.8809C36.1654 28.1346 34.816 29.2691 33.1829 29.7996C31.0963 30.4773 29.6336 27.4118 28.727 25.9382C27.2381 23.5176 23.5732 17.4204 21.3847 21.9815C19.9439 24.9841 17.0555 23.2079 15.564 21.6469C14.5955 20.633 13.5029 19.6092 12.0547 19.8117C10.2789 20.0602 9.13634 21.9127 8.20456 23.3562C5.57928 27.4241 3.12479 31.5256 0.240534 35.402C-0.0728993 35.8233 -0.0517814 36.3075 0.142355 36.6714C0.0152771 36.9915 0.0367654 37.3716 0.321671 37.6572C3.50491 40.856 7.70959 34.5538 10.7339 29.7019C10.4823 33.9604 10.4657 38.251 10.2686 42.5009C10.1185 45.736 9.69763 48.9478 9.53758 52.1842C9.32714 56.4296 9.27305 65.0634 15.2931 63.8917C15.7544 63.8015 16.0741 63.267 16.0752 62.7951C16.0815 59.5469 16.1545 56.3015 16.3209 53.0576C16.4235 51.0555 16.5861 49.0542 16.8736 47.0715C16.9818 46.3255 17.1367 45.5908 17.316 44.861C17.4001 44.5306 17.5042 44.2086 17.6287 43.8926C17.6428 43.8577 17.6491 43.8305 17.658 43.8004C17.6687 43.8392 17.6787 43.8771 17.6972 43.925C18.6042 46.2594 18.8765 48.8102 18.9461 51.4183C18.7905 52.4092 18.7983 53.4338 18.9632 54.4315C18.9354 57.294 18.8572 60.1565 19.2751 62.8192C19.3559 63.3335 19.8746 63.6508 20.3203 63.6686C21.9538 63.7346 24.4842 63.8581 25.443 62.0356C26.6271 59.7851 26.2225 56.6278 26.1421 54.1748C25.8747 45.9935 25.6353 37.8194 25.4478 29.6339C26.4156 30.7617 27.7723 31.8349 28.4955 32.5051C29.963 33.8643 31.2827 34.8391 33.2459 34.2627C37.1523 33.1163 42.6096 27.6808 43.6374 23.4385C43.6911 23.2106 43.6755 22.9484 43.5974 22.7142Z" fill="#FF9E92"/>
<path d="M68.9035 11.1395C66.3111 11.1118 63.7281 10.9698 61.1484 10.7906C61.44 10.1822 61.4048 9.4179 61.4466 8.71691C61.5204 7.4704 61.5085 6.2136 61.4874 4.96512C61.6597 3.52556 59.3526 3.44486 59.3271 4.96512C59.3082 6.08187 59.3037 7.19784 59.2511 8.3138C59.2144 9.09707 58.9892 9.91317 59.1874 10.6517C53.9776 10.255 48.7778 9.75573 43.5435 9.70826C43.5965 9.56941 43.6324 9.42541 43.6246 9.28142C43.5513 7.93443 43.4601 6.60247 43.4524 5.24836C43.5202 3.74195 41.2643 3.73206 41.2561 5.24836C41.2517 5.98574 41.2502 6.72313 41.265 7.46051C41.2783 8.12154 41.2335 8.97167 41.4721 9.59235C41.4877 9.6327 41.5062 9.67266 41.5247 9.71261C40.7822 9.72369 40.0394 9.74188 39.2955 9.77551C37.1248 9.87362 34.0971 9.86175 32.9423 12.1997C31.5745 14.97 32.6489 19.0414 32.902 21.9732C33.0135 23.2683 34.7733 23.3091 34.8155 21.9732C34.9033 19.1993 34.302 16.3926 34.8292 13.6412C35.2531 11.4299 41.3391 12.0917 42.9229 12.0905C51.2026 12.0854 59.3845 13.2975 67.6397 13.496C66.7087 21.6864 67.3867 29.9115 67.2711 38.1422C60.4911 38.6046 53.7145 38.3511 46.9361 38.7023C45.1299 38.7953 35.3038 39.9409 36.2664 36.4649C36.6765 34.9822 34.5151 34.3536 34.1064 35.8292C33.0346 39.6988 36.3679 40.8338 39.4992 41.1566C39.3288 42.9755 39.171 44.8099 39.0321 46.6518C37.5872 46.7127 36.1497 46.8907 34.7251 47.2954C33.9178 47.5244 34.0894 48.8414 34.9207 48.8398C36.2397 48.8366 37.5564 48.8702 38.8724 48.9173C38.6027 53.0805 38.4626 57.2651 38.5756 61.3765C38.6182 62.9216 40.8682 62.9256 40.8245 61.3765C40.7085 57.2678 41.1231 53.1414 41.3732 49.0233C45.6805 49.2361 49.9807 49.5542 54.3018 49.5261C56.5588 49.5119 58.8321 49.4628 61.088 49.2745C61.0802 49.4723 61.0743 49.6701 61.0661 49.8683C60.9157 53.7265 60.6419 57.555 60.2162 61.3761C60.1392 62.0695 60.9035 62.5605 61.4666 62.3931C63.754 61.7139 63.1349 53.7063 63.2061 51.9068C63.2439 50.9522 63.2757 49.9973 63.3046 49.0419C64.0289 48.9474 64.7521 48.8437 65.4772 48.7535C65.8306 48.71 66.8506 48.7963 67.0629 48.6934C67.3522 48.8054 67.6853 48.7654 67.9561 48.4588C67.9939 48.4165 68.0313 48.3734 68.0691 48.3314C68.3518 48.011 68.4622 47.4777 68.2184 47.0905C67.4548 45.876 65.9788 46.291 64.8192 46.4346C64.3324 46.4947 63.8467 46.5473 63.3606 46.6003C63.3765 45.6359 63.3858 44.6718 63.3806 43.7074C63.3758 42.8837 63.3521 42.07 63.2835 41.2496C63.2731 41.1261 63.2183 40.9639 63.1498 40.8029C64.8937 40.7096 66.6357 40.6008 68.3722 40.4615C68.9935 40.4117 69.4759 39.9552 69.4922 39.2661C69.7007 30.3961 68.7604 21.4743 69.9831 12.6538C70.0886 11.8919 69.6974 11.1478 68.9035 11.1395ZM56.6021 47.0877C52.7609 47.2064 48.9289 47.1383 45.0951 46.863C43.8936 46.776 42.6917 46.6889 41.4925 46.6474C41.5629 44.8522 41.5781 43.0598 41.4765 41.2725C41.9282 41.2816 42.3502 41.2812 42.721 41.2788C48.9278 41.2306 55.1794 41.1791 61.4018 40.8923C61.2855 41.4814 61.3099 42.161 61.297 42.7449C61.2673 44.1014 61.2247 45.4579 61.1777 46.8147C59.6601 46.9449 58.1397 47.0406 56.6021 47.0877Z" fill="#FF9E92"/>
<path d="M61.6879 21.4433C61.2489 22.3805 60.898 23.3537 60.4849 24.2971C60.0589 23.5977 59.7691 22.8271 59.5283 21.9703C59.3312 21.2677 58.335 20.825 57.8407 21.4944C57.0268 22.5965 56.6089 23.7516 56.3225 25.0143C55.0862 23.1254 55.2555 20.1328 54.749 18.0017C54.549 17.1607 53.2685 16.8671 52.904 17.7442C51.6443 20.7744 51.5621 24.3553 50.3069 27.3677C49.7044 24.5832 49.8886 21.6435 48.9872 18.9072C48.8042 18.3518 48.0417 17.9732 47.6238 18.5231C46.7794 19.6335 45.2793 21.388 45.2482 22.8789C45.2375 23.381 45.7765 23.5135 46.0725 23.2334L46.0803 23.2468C46.6746 22.5755 47.1896 21.8243 47.7238 21.0905C48.141 24.15 47.9583 27.2534 49.1035 30.1926C49.3536 30.8343 50.2387 31.3592 50.7614 30.6602C52.4987 28.3353 52.9262 25.5567 53.5105 22.7986C53.881 24.8814 54.5115 26.8028 56.4551 28.0034C56.9723 28.3235 57.8233 28.06 57.9326 27.3618C58.0667 26.5045 58.1838 25.6283 58.4261 24.7995C58.8225 25.6022 59.3183 26.3427 59.9622 26.9919C60.4468 27.4797 61.2033 27.3756 61.5553 26.7728C62.3841 25.3546 62.9142 23.8046 63.4859 22.2531C63.8945 21.1415 62.1818 20.3879 61.6879 21.4433Z" fill="#FF9E92"/>
</svg>
