<svg width="17" height="18" viewBox="0 0 17 18" fill="none" xmlns="http://www.w3.org/2000/svg">
<path d="M8.49984 16C12.5957 16 16 12.8294 16 9C16 5.17732 12.5881 2 8.49231 2C4.3896 2 1 5.17732 1 9C1 12.8294 4.39681 16 8.49984 16ZM8.50016 14.8334C5.02899 14.8334 2.25651 12.2391 2.25651 9C2.25651 5.76734 5.02146 3.16657 8.49231 3.16657C11.9556 3.16657 14.7422 5.76763 14.7498 9C14.757 12.2394 11.9635 14.8334 8.50016 14.8334ZM8.49231 10.2421C8.84495 10.2421 9.04355 10.0568 9.05076 9.70012L9.1612 6.07655C9.16873 5.72635 8.87444 5.46574 8.48478 5.46574C8.0876 5.46574 7.80837 5.71961 7.81559 6.06952L7.91128 9.70012C7.91849 10.05 8.12462 10.2421 8.49231 10.2421ZM8.49231 12.4725C8.91115 12.4725 9.28606 12.1568 9.28606 11.7589C9.28606 11.3539 8.91868 11.045 8.49231 11.045C8.05842 11.045 7.69794 11.3607 7.69794 11.7589C7.69794 12.1501 8.06563 12.4725 8.49231 12.4725Z" fill="#FF0000"/>
</svg>
