<svg width="28" height="20" viewBox="0 0 28 20" fill="none" xmlns="http://www.w3.org/2000/svg">
<path d="M28 12.7273C28 17.3041 24.7255 20 21.1169 20C17.8425 20 15.0358 17.3668 15.0358 14.1693C15.0358 11.0972 17.3747 9.02821 20.1814 9.02821C20.8496 9.02821 21.4511 9.15361 21.7184 9.2163C21.0501 6.95925 18.2434 4.26332 16.105 3.26019L20.3819 0C25.0597 3.1348 28 7.58621 28 12.7273ZM12.9642 12.7273C12.9642 17.3041 9.68974 20 6.08114 20C2.80668 20 0 17.3668 0 14.1693C0 11.0972 2.27208 9.02821 5.14558 9.02821C5.81384 9.02821 6.41527 9.15361 6.68258 9.2163C5.94749 6.95925 3.20764 4.26332 1.06921 3.26019L5.34606 0C10.0239 3.1348 12.9642 7.58621 12.9642 12.7273Z" fill="#FA897B"/>
</svg>
