<svg viewBox="0 0 50 50" fill="currentColor" xmlns="http://www.w3.org/2000/svg">
<g clip-path="url(#clip0_73_1398)">
<path d="M24.9975 28.9506C27.1794 28.9506 28.9482 27.1819 28.9482 25C28.9482 22.8181 27.1794 21.0493 24.9975 21.0493C22.8156 21.0493 21.0469 22.8181 21.0469 25C21.0469 27.1819 22.8156 28.9506 24.9975 28.9506Z" fill="currentColor"/>
<path d="M30.0551 15.0166H19.9498C18.6412 15.0166 17.3862 15.5365 16.4608 16.4618C15.5355 17.3871 15.0156 18.6422 15.0156 19.9508V30.0528C15.0156 31.3614 15.5355 32.6165 16.4608 33.5418C17.3862 34.4671 18.6412 34.987 19.9498 34.987H30.0551C31.3637 34.987 32.6188 34.4671 33.5441 33.5418C34.4695 32.6165 34.9893 31.3614 34.9893 30.0528V19.9475C34.9884 18.6395 34.4682 17.3853 33.5429 16.4606C32.6177 15.536 31.3632 15.0166 30.0551 15.0166ZM25.0025 31.4673C23.7233 31.4679 22.4726 31.0892 21.4086 30.379C20.3447 29.6687 19.5153 28.6589 19.0253 27.4773C18.5353 26.2956 18.4068 24.9952 18.6559 23.7405C18.9051 22.4858 19.5208 21.3332 20.4251 20.4284C21.3294 19.5236 22.4817 18.9074 23.7363 18.6576C24.9909 18.4078 26.2914 18.5356 27.4733 19.025C28.6552 19.5144 29.6654 20.3433 30.3762 21.4069C31.0869 22.4705 31.4663 23.7209 31.4663 25.0002C31.4645 26.7142 30.7831 28.3577 29.5714 29.57C28.3596 30.7823 26.7165 31.4646 25.0025 31.4673ZM31.5058 20.1317C31.1893 20.1324 30.8797 20.0391 30.6163 19.8637C30.3529 19.6883 30.1475 19.4386 30.0261 19.1464C29.9047 18.8541 29.8728 18.5324 29.9343 18.222C29.9959 17.9115 30.1483 17.6264 30.372 17.4026C30.5958 17.1788 30.881 17.0265 31.1914 16.9649C31.5018 16.9033 31.8235 16.9353 32.1158 17.0567C32.408 17.1781 32.6577 17.3835 32.8331 17.6469C33.0085 17.9103 33.1018 18.2199 33.1012 18.5363C33.1003 18.9592 32.9319 19.3645 32.6329 19.6635C32.3339 19.9625 31.9286 20.1309 31.5058 20.1317Z" fill="currentColor"/>
<path d="M25 0C20.0555 0 15.222 1.46622 11.1108 4.21326C6.99953 6.9603 3.79521 10.8648 1.90302 15.4329C0.010832 20.0011 -0.484251 25.0277 0.480379 29.8773C1.44501 34.7268 3.82603 39.1814 7.32234 42.6777C10.8187 46.174 15.2732 48.555 20.1228 49.5196C24.9723 50.4843 29.9989 49.9892 34.5671 48.097C39.1352 46.2048 43.0397 43.0005 45.7868 38.8893C48.5338 34.778 50 29.9445 50 25C50 18.3696 47.3661 12.0107 42.6777 7.32233C37.9893 2.63392 31.6304 0 25 0ZM37.5 30.0526C37.4983 32.0273 36.7131 33.9205 35.3168 35.3168C33.9205 36.7131 32.0273 37.4983 30.0526 37.5H19.9474C17.973 37.4974 16.0803 36.7119 14.6842 35.3158C13.2881 33.9198 12.5026 32.027 12.5 30.0526V19.9474C12.5026 17.973 13.2881 16.0803 14.6842 14.6842C16.0803 13.2881 17.973 12.5026 19.9474 12.5H30.0526C32.027 12.5026 33.9198 13.2881 35.3158 14.6842C36.7119 16.0803 37.4974 17.973 37.5 19.9474V30.0526Z" fill="currentColor"/>
</g>
</svg>
