<svg viewBox="0 0 50 50" fill="currentColor" xmlns="http://www.w3.org/2000/svg">
<path fill-rule="evenodd" clip-rule="evenodd" d="M25 0C38.8071 0 50 11.1929 50 25C50 38.8071 38.8071 50 25 50C11.1929 50 0 38.8071 0 25C0 11.1929 11.1929 0 25 0ZM38.8853 33.0332V17.6821L31.2095 25.3579L38.8853 33.0337V33.0332ZM13.2324 33.7207H36.7676L29.8071 26.7607L27.1016 29.4658C26.9155 29.6518 26.6632 29.7563 26.4001 29.7563H23.5997C23.4694 29.7564 23.3404 29.7307 23.22 29.6809C23.0996 29.631 22.9903 29.558 22.8981 29.4658L20.1931 26.7607L13.2324 33.7207ZM11.1141 17.6816V33.0332L18.7898 25.3574L11.1141 17.6816ZM37.4826 16.2793H12.5171L24.0103 27.7725H25.9895L37.4826 16.2793ZM39.4981 14.2956H10.502C10.1384 14.2961 9.78991 14.4407 9.53288 14.6978C9.27585 14.9549 9.13127 15.3035 9.13086 15.667V34.7126C9.13085 34.8428 9.15649 34.9718 9.20633 35.0921C9.25617 35.2125 9.32923 35.3218 9.42133 35.4139C9.51344 35.5059 9.62278 35.579 9.74311 35.6288C9.86345 35.6786 9.99242 35.7042 10.1227 35.7042H39.8775C40.1405 35.7041 40.3927 35.5996 40.5786 35.4137C40.7645 35.2277 40.869 34.9756 40.8691 34.7126V15.667C40.8686 15.3035 40.724 14.9551 40.467 14.6981C40.21 14.441 39.8616 14.2964 39.4981 14.2958V14.2956Z" fill="currentColor"/>
</svg>
