<svg width="144" height="461" viewBox="0 0 144 461" fill="none" xmlns="http://www.w3.org/2000/svg">
<path d="M141.158 76.0283C139.795 47.3409 117.036 20.7307 88.2186 14.1302C86.8808 13.8238 61.9568 9.69119 61.9568 9.69119C61.9318 9.68708 61.9108 9.6847 61.8883 9.68172C52.2187 8.12074 42.6387 8.95238 33.9582 12.137C24.3192 15.673 16.2486 21.9136 10.619 30.1847C9.83384 31.3382 10.2352 33.0449 11.5157 33.9971C11.9381 34.3111 12.403 34.5037 12.8648 34.5796C13.8036 34.7339 14.7292 34.4057 15.2554 33.6324C20.3637 26.1275 27.6893 20.464 36.4407 17.2535C43.6734 14.6002 51.5957 13.7501 59.632 14.7252C42.0087 19.8632 28.5457 33.9358 25.2221 53.2403C24.7801 55.807 24.5207 58.4595 24.4511 61.1235C24.3256 65.923 26.1709 70.6015 29.2577 74.3124L19.7766 72.7545C12.8494 71.6162 7.3581 65.1517 7.53604 58.3441C7.59917 55.929 7.83464 53.5218 8.23519 51.1915C8.67709 48.6302 9.33008 46.1121 10.1752 43.7072C10.6464 42.3666 9.87232 40.7427 8.44628 40.0796C7.02025 39.4165 5.48279 39.9663 5.01055 41.3068C4.0777 43.9609 3.35745 46.7401 2.86927 49.5681C2.42752 52.1377 2.16817 54.7898 2.09862 57.4506C1.84369 67.2035 9.71104 76.465 19.6366 78.0959L41.9901 81.769C41.9956 81.7699 42.0003 81.7688 42.0058 81.7697C51.9257 83.3919 60.2009 76.7868 60.4556 67.0396C60.4827 66.0041 60.5827 64.9769 60.7531 63.9875C61.9123 57.257 66.3058 52.1975 72.1926 49.8664C78.4439 54.5389 82.4809 61.7562 82.8271 69.0254C83.3022 79.0513 76.9503 87.2646 67.3792 88.9982C52.0196 91.7884 41.4195 104.379 41.0026 120.327L40.8362 126.695C40.5813 136.447 48.4486 145.709 58.3741 147.34L80.7277 151.013L80.7277 151.012L80.7285 151.012C90.6551 152.643 98.9383 146.036 99.1932 136.284L99.3597 129.915C99.3856 128.925 99.9904 128.153 100.865 127.994C125.826 123.466 142.395 102.097 141.158 76.0283ZM46.2736 127.588L46.44 121.221C46.7979 107.531 55.8887 96.725 69.0602 94.332C80.9551 92.1773 88.8506 81.9779 88.2605 69.528C87.8935 61.8294 84.2048 54.1834 78.3285 48.4967C80.4574 48.3544 82.6805 48.5212 84.9432 49.0403C95.9597 51.5633 104.66 61.7348 105.181 72.6995C105.656 82.7234 99.305 90.9371 89.7349 92.673C74.3732 95.4593 63.7721 108.048 63.3551 123.998L63.1887 130.367C63.0632 135.167 64.9081 139.845 67.9949 143.556L58.5141 141.998C51.5866 140.86 46.0957 134.396 46.2736 127.588ZM99.1845 122.66C96.1224 123.215 94.0079 125.772 93.923 129.021L93.7565 135.39C93.5786 142.197 87.7971 146.809 80.8684 145.67C73.9398 144.532 68.4478 138.068 68.6257 131.261L68.7922 124.892C69.1501 111.201 78.2416 100.397 91.4156 98.0068C103.311 95.8489 111.205 85.6489 110.614 73.2021C109.966 59.5611 99.1428 46.9075 85.4392 43.7688C84.8233 43.6276 84.2105 43.5072 83.6001 43.4069C69.8541 41.1482 57.6556 49.1968 55.3879 62.3648C55.1767 63.5926 55.0524 64.865 55.0189 66.1463C54.841 72.9531 49.0595 77.5647 42.1312 76.4263C35.2026 75.2878 29.7106 68.8238 29.8885 62.0169C29.9517 59.5983 30.1872 57.1919 30.5877 54.863C35.0983 28.6695 60.1901 13.0952 87.7233 19.4018C113.853 25.3866 134.489 49.5147 135.725 75.5254C136.847 99.1711 121.821 118.554 99.1845 122.66Z" fill="#D0E6A5"/>
<path d="M78.4423 164.848L78.4415 164.848L56.2811 161.255C46.4399 159.66 38.2223 166.144 37.9626 175.709L37.9592 175.831C37.6995 185.396 45.4945 194.476 55.3357 196.072C55.3357 196.072 77.9638 199.736 78.1972 199.766C79.686 199.955 80.8818 198.93 80.8679 197.475C80.8543 196.021 79.646 194.687 78.1464 194.499C77.9774 194.477 77.8084 194.453 77.6391 194.425C70.7694 193.312 65.328 186.973 65.5093 180.296L65.5126 180.174C65.6938 173.499 71.4303 168.974 78.3 170.088C85.1675 171.201 90.6076 177.538 90.4264 184.213L90.4231 184.335C90.3462 187.164 89.2462 189.752 87.3266 191.621C86.3437 192.578 86.4531 194.255 87.5717 195.366C88.6897 196.478 90.3931 196.603 91.3763 195.646C94.1275 192.968 95.7033 189.261 95.8133 185.209L95.8166 185.087C96.0763 175.522 88.282 166.443 78.4423 164.848ZM43.3495 176.705L43.3528 176.582C43.5341 169.906 49.2699 165.38 56.1389 166.494L65.5348 168.017C62.3077 170.636 60.2501 174.593 60.1223 179.299L60.119 179.422C59.9912 184.129 61.8171 188.717 64.8747 192.355L55.478 190.832C48.6086 189.719 43.1682 183.381 43.3495 176.705Z" fill="#D0E6A5"/>
<path d="M131.579 325.776C126.065 303.388 104.425 291.583 81.2423 298.315C80.1661 298.628 60.3607 305.711 60.3607 305.711C60.3408 305.718 60.3242 305.725 60.3065 305.732C52.6293 308.514 45.3934 313.174 39.2154 319.341C32.3551 326.189 27.1218 334.547 24.0811 343.513C23.657 344.763 24.2313 345.961 25.364 346.189C25.7376 346.265 26.1251 346.225 26.4919 346.093C27.2377 345.825 27.8982 345.177 28.1824 344.339C30.9415 336.204 35.692 328.618 41.9205 322.4C47.0681 317.262 53.0267 313.279 59.3569 310.709C46.6076 322.167 38.4475 339.041 38.8974 355.874C38.9571 358.112 39.1706 360.343 39.5317 362.503C40.1824 366.396 42.3294 369.371 45.2803 371.053L37.7484 373.759C32.2455 375.736 27.0173 372.853 26.0944 367.331C25.767 365.372 25.5733 363.348 25.5185 361.316C25.4595 359.082 25.5696 356.795 25.845 354.518C25.9985 353.249 25.1506 352.272 23.951 352.336C22.7514 352.4 21.655 353.481 21.5006 354.751C21.1965 357.263 21.0754 359.788 21.1403 362.254C21.2007 364.494 21.4142 366.725 21.7749 368.883C23.0971 376.794 30.5874 380.925 38.4723 378.092L56.23 371.712C56.2343 371.71 56.2378 371.708 56.2422 371.706C64.1214 368.869 69.4553 360.133 68.1338 352.227C67.9935 351.387 67.9105 350.524 67.8874 349.661C67.7309 343.792 70.3212 337.912 74.4842 333.592C80.0177 334.725 84.2449 338.817 85.6427 344.49C87.5686 352.315 83.9638 361.535 76.8751 366.912C65.5007 375.548 59.3109 390.042 61.4732 402.978L62.3364 408.143C63.6586 416.053 71.1489 420.184 79.0338 417.351L96.7915 410.972L96.7913 410.971L96.7919 410.971C104.678 408.137 110.017 399.397 108.695 391.487L107.832 386.322C107.698 385.519 108.043 384.649 108.69 384.157C127.176 370.127 136.588 346.12 131.579 325.776ZM66.6559 406.591L65.7927 401.426C63.9367 390.322 69.2438 377.886 78.9978 370.48C87.8075 363.797 92.29 352.343 89.8983 342.627C88.4177 336.62 84.3915 332.039 78.9883 329.938C80.6029 328.937 82.3381 328.144 84.1585 327.616C93.021 325.042 101.293 329.554 103.401 338.111C105.327 345.934 101.722 355.154 94.6347 360.533C83.2581 369.167 77.0673 383.66 79.2298 396.597L80.0932 401.763C80.7439 405.656 82.8906 408.63 85.8414 410.313L78.3098 413.019C72.8066 414.996 67.5788 412.112 66.6559 406.591ZM106.568 380.589C104.3 382.31 103.072 385.237 103.513 387.873L104.376 393.039C105.299 398.56 101.572 404.66 96.068 406.638C90.5639 408.615 85.3352 405.732 84.4124 400.211L83.549 395.045C81.6928 383.941 87.0007 371.505 96.7572 364.1C105.566 357.415 110.048 345.962 107.656 336.248C105.034 325.603 94.7435 319.989 83.7192 323.191C83.2238 323.334 82.7339 323.494 82.249 323.668C71.3292 327.591 63.2036 339.117 63.5099 350.599C63.5387 351.67 63.6412 352.74 63.8149 353.779C64.7377 359.3 61.0106 365.401 55.5068 367.378C50.0027 369.355 44.7741 366.473 43.8512 360.952C43.5233 358.99 43.3298 356.966 43.2751 354.935C42.6655 332.095 59.5322 309.172 81.6822 302.74C102.703 296.636 122.325 307.34 127.323 327.639C131.867 346.092 123.332 367.867 106.568 380.589Z" fill="#85E2CD"/>
<path d="M100.505 421.253L82.9501 427.537C75.1546 430.328 69.8753 438.923 71.1817 446.698L71.1984 446.798C72.5048 454.573 79.9097 458.628 87.7053 455.837C87.7053 455.837 105.629 449.418 105.813 449.345C106.984 448.881 107.739 447.564 107.5 446.404C107.26 445.244 106.124 444.674 104.945 445.144C104.812 445.196 104.678 445.247 104.544 445.295C99.1026 447.243 93.9335 444.412 93.0215 438.984L93.0048 438.885C92.0931 433.459 95.7787 427.46 101.22 425.512C106.66 423.565 111.828 426.394 112.74 431.82L112.757 431.92C113.143 434.219 112.707 436.748 111.53 439.04C110.927 440.214 111.274 441.513 112.307 441.941C113.339 442.37 114.665 441.766 115.268 440.593C116.955 437.308 117.58 433.685 117.026 430.392L117.01 430.292C115.703 422.517 108.299 418.463 100.505 421.253ZM75.4682 445.269L75.4515 445.17C74.5396 439.743 78.2245 433.743 83.6656 431.795L91.1085 429.131C89.0467 432.565 88.0922 436.588 88.7349 440.413L88.7516 440.512C89.3946 444.339 91.5164 447.261 94.4331 448.914L86.9896 451.578C81.5482 453.526 76.38 450.696 75.4682 445.269Z" fill="#85E2CD"/>
</svg>
