<svg width="170" height="547" viewBox="0 0 170 547" fill="none" xmlns="http://www.w3.org/2000/svg">
<path d="M161.734 91.7422C163.807 58.1688 142.291 26.6617 111.689 18.4533C110.268 18.0723 83.6045 12.8163 83.6045 12.8163C83.5778 12.8111 83.5551 12.8079 83.531 12.8041C73.1812 10.8144 62.6323 11.6245 52.7724 15.2016C41.8237 19.1735 32.2497 26.335 25.0854 35.9126C24.0862 37.2483 24.3121 39.2512 25.5902 40.3864C26.0119 40.7609 26.4949 40.994 26.989 41.0906C27.9935 41.2869 29.0434 40.9188 29.7131 40.0234C36.214 31.333 44.9041 24.8338 54.8446 21.2275C63.06 18.2473 71.8037 17.3875 80.4452 18.6641C60.592 24.3741 44.1668 40.6037 38.1483 63.1242C37.3479 66.1184 36.7361 69.2162 36.3297 72.3305C35.5976 77.9415 37.0293 83.4444 39.9347 87.8366L29.7901 85.8538C22.3781 84.4051 17.1925 76.7515 18.2309 68.793C18.5993 65.9696 19.1547 63.1584 19.8805 60.4399C20.68 57.4519 21.7044 54.518 22.9242 51.7197C23.6042 50.1599 22.9616 48.2476 21.489 47.4479C20.0163 46.6482 18.2717 47.2652 17.5906 48.8248C16.2442 51.913 15.1141 55.1511 14.231 58.4502C13.4306 61.4479 12.8188 64.5452 12.413 67.6558C10.9252 79.0576 18.3547 90.0225 28.9748 92.0983L52.8928 96.7733C52.8986 96.7744 52.9039 96.7733 52.9097 96.7744C63.5249 98.8399 73.3672 91.2556 74.854 79.8604C75.012 78.6498 75.2485 77.4503 75.557 76.296C77.6557 68.4443 83.0739 62.6017 89.7819 59.9753C96.0184 65.5459 99.525 74.0551 99.0008 82.5624C98.2752 94.296 90.3306 103.794 79.6794 105.659C62.5858 108.661 49.4661 123.206 47.0332 141.851L46.0619 149.295C44.5742 160.696 52.0037 171.661 62.6238 173.737L86.5418 178.412L86.5419 178.411L86.5427 178.411C97.164 180.487 107.015 172.901 108.503 161.5L109.474 154.054C109.625 152.897 110.381 152.004 111.354 151.833C139.133 146.961 159.85 122.251 161.734 91.7422ZM51.8799 150.432L52.8511 142.988C54.9394 126.984 66.1922 114.5 80.8508 111.925C94.0878 109.607 103.962 97.8128 104.863 83.2425C105.418 74.2326 102.344 65.2279 96.6421 58.4776C98.981 58.3473 101.384 58.5801 103.787 59.2256C115.486 62.3631 123.711 74.4064 122.919 87.2386C122.194 98.9698 114.25 108.468 103.599 110.336C86.5041 113.334 73.3834 127.876 70.9502 146.524L69.9787 153.969C69.2466 159.58 70.6779 165.083 73.5833 169.475L63.4391 167.492C56.0267 166.044 50.8414 158.39 51.8799 150.432ZM110.183 145.567C106.776 146.164 104.153 149.118 103.657 152.917L102.686 160.362C101.647 168.32 94.7715 173.615 87.3579 172.166C79.9444 170.717 74.7579 163.064 75.7963 155.106L76.7678 147.661C78.8563 131.655 90.1095 119.173 104.77 116.602C118.008 114.28 127.881 102.485 128.78 87.9186C129.766 71.9543 119.534 56.9721 104.982 53.0689C104.328 52.8933 103.675 52.7421 103.021 52.6145C88.3135 49.7397 74.0142 58.9456 69.9082 74.3073C69.5256 75.7395 69.2323 77.2255 69.0369 78.7234C67.9985 86.6811 61.1225 91.9762 53.7094 90.5273C46.2959 89.0783 41.1093 81.4254 42.1477 73.4677C42.5166 70.6402 43.0719 67.8298 43.7974 65.1129C51.9648 34.5559 81.2559 16.7674 110.495 24.6102C138.244 32.0528 157.752 60.621 155.872 91.0618C154.163 118.735 135.375 141.148 110.183 145.567Z" fill="#FA897B"/>
<path d="M84.1113 190.481L84.1105 190.48L60.2732 185.831C49.6874 183.766 39.869 191.312 38.3863 202.651L38.3673 202.796C36.8847 214.136 44.2906 225.042 54.8765 227.107C54.8765 227.107 79.2173 231.85 79.4695 231.889C81.0774 232.14 82.5164 230.945 82.6833 229.22C82.8506 227.494 81.6934 225.891 80.0734 225.642C79.8908 225.613 79.7087 225.581 79.5267 225.546C72.1371 224.104 66.9673 216.491 68.0023 208.575L68.0212 208.43C69.0559 200.517 75.9096 195.251 83.2991 196.693C90.6863 198.134 95.8549 205.744 94.8202 213.658L94.8013 213.803C94.3627 217.157 92.8331 220.206 90.4951 222.389C89.298 223.508 89.2078 225.498 90.2947 226.836C91.3807 228.174 93.232 228.352 94.4293 227.235C97.78 224.106 99.9713 219.738 100.599 214.934L100.618 214.789C102.101 203.45 94.6956 192.545 84.1113 190.481ZM44.1655 203.927L44.1845 203.782C45.2194 195.867 52.0724 190.6 59.4612 192.041L69.5681 194.013C65.7033 197.062 62.9526 201.719 62.2232 207.299L62.2042 207.444C61.4745 213.025 62.9011 218.498 65.7964 222.867L55.6887 220.895C48.2995 219.454 43.1307 211.842 44.1655 203.927Z" fill="#FA897B"/>
<path d="M142.753 423.208C138.513 396.67 116.576 375.053 91.7247 372.924C90.571 372.825 69.2475 372.452 69.2475 372.452C69.2261 372.452 69.2082 372.453 69.189 372.453C60.9208 372.348 52.9861 374.459 46.0589 378.637C38.3667 383.276 32.2804 390.217 28.458 398.708C27.9249 399.892 28.4453 401.427 29.6207 402.135C30.0085 402.369 30.4187 402.483 30.8137 402.49C31.6168 402.502 32.3566 402.067 32.7139 401.274C36.1824 393.569 41.707 387.27 48.6908 383.058C54.4627 379.577 61.0069 377.679 67.8437 377.467C53.6366 384.712 43.8792 399.702 43.1798 418.151C43.0867 420.604 43.1559 423.112 43.3852 425.604C43.7984 430.093 45.8493 434.194 48.8356 437.221L40.7256 437.092C34.8002 436.998 29.5025 431.741 28.9164 425.374C28.7085 423.115 28.6458 420.84 28.7296 418.613C28.8232 416.165 29.0983 413.727 29.5465 411.369C29.7964 410.054 28.9726 408.649 27.7065 408.23C26.4404 407.811 25.212 408.538 24.9612 409.853C24.4664 412.456 24.1632 415.146 24.0596 417.849C23.9671 420.304 24.0362 422.812 24.2653 425.3C25.105 434.423 32.695 441.954 41.1852 442.088L60.306 442.392C60.3106 442.392 60.3145 442.39 60.3191 442.39C68.8036 442.518 75.022 435.209 74.1828 426.092C74.0937 425.124 74.0665 424.153 74.1024 423.207C74.3466 416.775 77.4804 411.448 82.1597 408.455C87.9006 411.936 92.0615 418.097 93.1364 424.821C94.617 434.096 90.1834 442.634 82.3534 445.585C69.789 450.327 62.2695 463.537 63.6426 478.454L64.1907 484.409C65.0303 493.532 72.6204 501.063 81.1106 501.197L100.231 501.501L100.231 501.5L100.232 501.5C108.723 501.635 114.948 494.323 114.108 485.202L113.56 479.245C113.475 478.319 113.898 477.515 114.613 477.245C135.033 469.544 146.604 447.323 142.753 423.208ZM68.8418 484.483L68.2936 478.528C67.1151 465.723 73.563 454.387 84.3376 450.32C94.0685 446.653 99.5807 436.049 97.742 424.531C96.6032 417.41 92.6877 410.801 87.1514 406.323C88.9193 405.893 90.7995 405.738 92.7509 405.906C102.251 406.72 110.637 414.983 112.257 425.126C113.738 434.398 109.305 442.937 101.476 445.89C88.9096 450.629 81.3891 463.837 82.7623 478.756L83.3106 484.713C83.7238 489.202 85.7744 493.303 88.7607 496.33L80.651 496.201C74.7253 496.107 69.4279 490.85 68.8418 484.483ZM112.63 472.51C110.125 473.454 108.63 476.131 108.909 479.171L109.458 485.128C110.044 491.494 105.699 496.597 99.7723 496.503C93.8457 496.409 88.5474 491.153 87.9614 484.786L87.4131 478.829C86.2344 466.024 92.6831 454.689 103.46 450.625C113.191 446.955 118.702 436.35 116.863 424.836C114.847 412.217 104.415 401.938 92.5971 400.926C92.0659 400.88 91.5396 400.853 91.0175 400.845C79.2595 400.658 69.9107 409.859 69.4331 422.444C69.3888 423.617 69.4221 424.82 69.5324 426.019C70.1184 432.385 65.7735 437.488 59.8472 437.394C53.9206 437.3 48.6223 432.044 48.0363 425.677C47.828 423.415 47.7654 421.14 47.8494 418.915C48.7991 393.881 68.1352 375.87 91.8791 377.904C114.413 379.835 134.304 399.436 138.147 423.497C141.641 445.371 131.148 465.526 112.63 472.51Z" fill="#FFDD95"/>
<path d="M99.7225 513.383L99.7219 513.383L80.8443 513.093C72.4609 512.964 66.3089 520.184 67.1304 529.188L67.1409 529.303C67.9624 538.306 75.451 545.736 83.8344 545.865C83.8344 545.865 103.11 546.157 103.308 546.153C104.57 546.123 105.457 544.996 105.287 543.634C105.118 542.273 103.965 541.19 102.694 541.222C102.551 541.225 102.407 541.226 102.263 541.224C96.4106 541.134 91.1831 535.947 90.6096 529.662L90.5991 529.547C90.0258 523.264 94.3205 518.225 100.173 518.315C106.023 518.405 111.249 523.59 111.822 529.873L111.833 529.989C112.076 532.652 111.439 535.23 110.04 537.249C109.324 538.283 109.597 539.84 110.651 540.726C111.705 541.613 113.139 541.494 113.856 540.46C115.86 537.567 116.773 533.873 116.425 530.06L116.414 529.944C115.593 520.941 108.105 513.512 99.7225 513.383ZM71.7327 529.373L71.7222 529.258C71.1488 522.974 75.4427 517.934 81.2942 518.024L89.2982 518.147C86.8902 521.05 85.6031 525.046 86.0073 529.476L86.0178 529.591C86.4221 534.022 88.4433 538.069 91.389 541.056L83.3844 540.933C77.5327 540.843 72.306 535.657 71.7327 529.373Z" fill="#FFDD95"/>
</svg>
