<svg width="67" height="20" viewBox="0 0 67 20" fill="currentColor" xmlns="http://www.w3.org/2000/svg">
<path fill-rule="evenodd" clip-rule="evenodd" d="M67.0009 0.5H37.5207V19.5H67.0009V0.5ZM46.8304 5.73151V14.0006C46.8304 14.005 46.8304 14.0093 46.8305 14.0137C46.8306 14.0181 46.8307 14.0226 46.8308 14.027C46.8313 14.0445 46.8317 14.0618 46.8304 14.0786C46.8262 14.1264 46.8397 14.1547 46.8975 14.1469C46.9113 14.1456 46.9251 14.146 46.9388 14.1465C46.9426 14.1466 46.9463 14.1467 46.95 14.1468C46.9532 14.1469 46.9563 14.1469 46.9595 14.1469C47.2036 14.1469 47.4478 14.147 47.692 14.1471C48.1808 14.1473 48.6699 14.1476 49.159 14.1469C49.1673 14.1469 49.1751 14.147 49.1824 14.147C49.1886 14.1471 49.1945 14.1471 49.2001 14.1472C49.247 14.1478 49.2699 14.148 49.2808 14.1374C49.2912 14.1272 49.2907 14.1073 49.2898 14.0683C49.2895 14.0552 49.2892 14.0399 49.2892 14.0221V5.74321L49.289 5.73427L49.2887 5.7237C49.2882 5.7107 49.2878 5.69769 49.2892 5.68469C49.2943 5.63592 49.2768 5.61056 49.221 5.61642C49.21 5.61771 49.1986 5.61728 49.187 5.61685C49.1811 5.61664 49.1752 5.61642 49.1693 5.61642C48.9229 5.61642 48.6763 5.61631 48.4297 5.6162H48.4288C47.9356 5.61598 47.4421 5.61577 46.9492 5.61642C46.9346 5.61642 46.9217 5.61623 46.9104 5.61607C46.8698 5.6155 46.8494 5.61521 46.8393 5.62471C46.829 5.63432 46.8293 5.65393 46.83 5.69338C46.8302 5.70445 46.8304 5.71709 46.8304 5.73151ZM59.0769 5.6167H55.4077C54.1861 5.6167 52.9645 5.6167 51.7439 5.61573C51.7393 5.61573 51.7349 5.61575 51.7304 5.61579C51.7256 5.61583 51.7209 5.61589 51.7161 5.61594C51.6979 5.61616 51.6798 5.61637 51.6612 5.61573C51.6199 5.61377 51.6054 5.63231 51.6085 5.66839C51.6092 5.67941 51.609 5.68999 51.6088 5.70071C51.6086 5.70612 51.6085 5.71161 51.6085 5.71716V7.69714L51.6085 7.71767C51.6082 7.76018 51.6081 7.78111 51.6191 7.79132C51.6298 7.80121 51.651 7.80103 51.6926 7.80068C51.6969 7.80065 51.7014 7.80061 51.7062 7.80058C51.7109 7.80055 51.7159 7.80053 51.7211 7.80053H54.025C54.1001 7.80053 54.1373 7.80053 54.1557 7.81811C54.1737 7.83534 54.1738 7.86947 54.1738 7.93708V14.0419C54.1738 14.0536 54.1736 14.064 54.1735 14.0732C54.1729 14.1083 54.1726 14.1266 54.1822 14.1361C54.1926 14.1466 54.2149 14.1465 54.2615 14.1463L54.2843 14.1462H56.4952C56.5644 14.1462 56.5988 14.1462 56.6158 14.13C56.6326 14.114 56.6326 14.0823 56.6326 14.0194V7.91465C56.6326 7.90151 56.6324 7.88989 56.6322 7.87961C56.6316 7.84187 56.6313 7.82199 56.6415 7.81185C56.6526 7.80088 56.676 7.80104 56.7248 7.80137C56.7341 7.80144 56.7443 7.8015 56.7555 7.8015H59.1007C59.2019 7.8015 59.2019 7.80151 59.203 7.7069V5.73667C59.203 5.72314 59.2031 5.71111 59.2033 5.70043C59.2038 5.65751 59.2041 5.6362 59.193 5.62578C59.182 5.61552 59.16 5.61581 59.1163 5.61638C59.1048 5.61653 59.0917 5.6167 59.0769 5.6167Z" fill="currentColor"/>
<path d="M19.2582 8.93723C19.6763 8.20864 20.3444 7.85946 20.9929 7.8458C22.3084 7.84288 23.1684 8.54221 23.4029 9.51172C23.545 10.096 23.4818 10.6636 23.1778 11.1942C22.8199 11.8175 22.2617 12.1803 21.5106 12.2613C20.7843 12.3403 20.1504 12.1462 19.6327 11.6526C19.3008 11.3366 19.1005 10.9513 19.0155 10.5163C18.9076 9.96526 18.974 9.43174 19.2582 8.93723Z" fill="currentColor"/>
<path fill-rule="evenodd" clip-rule="evenodd" d="M29.48 0.5H0V19.5H29.48L37.52 10L29.48 0.5ZM13.0342 8.6116C13.0789 8.64586 13.1239 8.68034 13.1695 8.71489C13.1997 8.6975 13.2184 8.67369 13.236 8.65126C13.2401 8.64604 13.2442 8.64086 13.2483 8.63589C13.4081 8.45642 13.5668 8.27598 13.7255 8.09554C14.044 7.73563 14.3615 7.37572 14.679 7.01484C14.7423 6.94266 14.7402 6.9095 14.6676 6.85098C14.6105 6.80416 14.5524 6.75832 14.4933 6.71248C13.9891 6.32234 13.4351 6.01802 12.8074 5.84148C12.3882 5.72444 11.9598 5.66007 11.524 5.63178C10.9555 5.59569 10.3921 5.61325 9.83399 5.73517C7.87939 6.16043 6.42071 7.68979 6.24952 9.65026C6.20388 10.1789 6.24745 10.7027 6.39062 11.2167C6.71639 12.3803 7.42394 13.2718 8.54752 13.8589C9.15963 14.1789 9.82258 14.3476 10.5198 14.4003C11.1101 14.4451 11.6942 14.411 12.271 14.2881C13.2462 14.0803 14.1084 13.6609 14.8751 13.0611C14.9363 13.0133 14.9612 12.9655 14.9612 12.8894C14.9587 11.9563 14.9588 11.0226 14.959 10.0892L14.9591 9.38887C14.9591 9.37674 14.9582 9.36443 14.9573 9.35213C14.9553 9.32486 14.9533 9.29767 14.9612 9.2728C14.9703 9.24392 14.9538 9.22736 14.9377 9.21122C14.9245 9.19791 14.9116 9.1849 14.9134 9.16551C14.9176 9.13332 14.8948 9.12845 14.8678 9.12845H10.7501C10.7422 9.12845 10.7341 9.12866 10.7261 9.12887C10.7098 9.12931 10.6934 9.12975 10.6775 9.12845C10.636 9.12454 10.6225 9.14405 10.6256 9.18014C10.627 9.19513 10.6265 9.21056 10.626 9.22584C10.6258 9.23341 10.6256 9.24098 10.6256 9.24841C10.6256 9.45324 10.6255 9.65807 10.6253 9.86289C10.6251 10.2725 10.6249 10.6822 10.6256 11.0918C10.6256 11.1088 10.6252 11.1234 10.625 11.1359C10.6241 11.1734 10.6237 11.1927 10.6337 11.2025C10.6442 11.2128 10.6665 11.2126 10.7122 11.2121C10.7237 11.212 10.7366 11.2118 10.7511 11.2118H12.3799C12.3943 11.2118 12.407 11.2117 12.4183 11.2115C12.4634 11.211 12.4854 11.2108 12.4958 11.221C12.5057 11.2307 12.5054 11.2497 12.5048 11.2866C12.5046 11.2996 12.5043 11.3149 12.5044 11.3328C12.5051 11.4218 12.5049 11.5104 12.5047 11.5992C12.5046 11.6436 12.5044 11.6881 12.5044 11.7327V11.7359C12.5044 11.919 12.5044 11.9204 12.3291 11.9999C11.8156 12.232 11.273 12.2984 10.7127 12.232C10.0902 12.1589 9.59226 11.8809 9.22707 11.4001C8.98949 11.087 8.8598 10.7339 8.81104 10.3535C8.74983 9.86777 8.81208 9.40057 9.04551 8.95971C9.32666 8.43009 9.75203 8.0497 10.3631 7.87511C10.7916 7.75221 11.2252 7.7844 11.6547 7.87316C12.0438 7.95314 12.3831 8.1326 12.6953 8.35791C12.8098 8.43967 12.9211 8.52498 13.0342 8.6116ZM24.5576 6.84216C23.598 6.017 22.4547 5.62394 21.273 5.61516C20.7273 5.61613 20.3195 5.65807 19.8869 5.76439C18.6316 6.07358 17.6491 6.73682 16.9965 7.79606C16.3263 8.88261 16.1904 10.0482 16.5649 11.2469C16.9841 12.587 17.8773 13.5624 19.2593 14.1057C20.3206 14.5221 21.4203 14.5777 22.5294 14.3027C23.8179 13.9837 24.8056 13.2786 25.4529 12.1783C25.9987 11.2508 26.1449 10.2559 25.9416 9.21716C25.759 8.28374 25.3025 7.48394 24.5576 6.84216Z" fill="currentColor"/>
</svg>
