<svg width="134" height="20" viewBox="0 0 134 20" fill="currentColor" xmlns="http://www.w3.org/2000/svg">
<path fill-rule="evenodd" clip-rule="evenodd" d="M5.9152 0.5C0.657925 0.5 -1.9769 6.5699 1.73787 10.1234L8.60183 16.6895H0.490676V19.5205H14.0107C19.2702 19.5205 21.904 13.4462 18.1848 9.89398L11.3133 3.33106H19.447V0.5H5.9152ZM11.3119 3.33106H5.9152C3.29735 3.33106 1.98535 6.35355 3.83511 8.12301L10.7043 14.694L8.61224 16.6895H14.0107C16.6297 16.6895 17.9412 13.6648 16.0892 11.896L9.21702 5.33235L11.3119 3.33106Z" fill="currentColor"/>
<path d="M38.1582 4.44376C38.0916 4.44213 34.4081 4.44132 34.3406 4.44132C33.6495 4.44132 33.0298 4.50414 32.4813 4.62979C31.9328 4.75544 31.4611 4.94391 31.0662 5.19521C30.6713 5.43603 30.3697 5.73968 30.1613 6.10616C29.9528 6.47263 29.8486 6.89146 29.8486 7.36264C29.8486 7.85476 29.9474 8.27359 30.1448 8.61912C30.3532 8.95418 30.6275 9.23689 30.9675 9.46725C31.3185 9.68713 31.7079 9.87561 32.1358 10.0327C32.5745 10.1897 33.0243 10.3258 33.485 10.441C33.9457 10.5562 34.39 10.6714 34.8178 10.7866C35.2565 10.9017 35.646 11.0326 35.986 11.1792C36.337 11.3258 36.6113 11.509 36.8087 11.7289C37.0171 11.9488 37.1213 12.2263 37.1213 12.5613C37.1213 12.7812 37.072 12.9749 36.9732 13.1425C36.8745 13.31 36.7374 13.4566 36.5619 13.5822C36.3864 13.6974 36.178 13.7969 35.9366 13.8806C35.7063 13.9539 35.4485 14.0115 35.1633 14.0534C34.8781 14.0848 34.5819 14.1005 34.2748 14.1005C34.232 14.1005 30.2177 14.1001 30.1756 14.0993V15.5917C30.218 15.5923 34.2322 15.5926 34.2748 15.5926C35.1852 15.5926 35.9915 15.4827 36.6935 15.2628C37.4065 15.0429 37.966 14.6921 38.3718 14.2105C38.7777 13.7183 38.9806 13.0849 38.9806 12.31C38.9806 11.8179 38.8764 11.4043 38.668 11.0693C38.4596 10.7237 38.1799 10.4358 37.8289 10.2054C37.4888 9.97508 37.0994 9.78137 36.6606 9.62431C36.2328 9.46725 35.7886 9.33113 35.3278 9.21595C34.8781 9.0903 34.4338 8.97513 33.9951 8.87042C33.5673 8.75524 33.1778 8.62959 32.8268 8.49347C32.4868 8.35736 32.2125 8.19506 32.0041 8.00659C31.7957 7.80764 31.6915 7.55635 31.6915 7.2527C31.6915 6.98046 31.7902 6.7501 31.9877 6.56163C32.1961 6.36269 32.4977 6.21086 32.8926 6.10616C33.2875 5.99098 33.7757 5.93339 34.357 5.93339C34.4196 5.93339 38.0976 5.9344 38.1582 5.93641V4.44376Z" fill="currentColor"/>
<path fill-rule="evenodd" clip-rule="evenodd" d="M46.9764 15.5926C45.8137 15.5926 44.8045 15.3884 43.9489 14.9801C43.1042 14.5717 42.4516 13.9539 41.9908 13.1268C41.5411 12.2996 41.3162 11.263 41.3162 10.017C41.3162 8.76048 41.5411 7.72388 41.9908 6.90717C42.4516 6.07998 43.1042 5.46221 43.9489 5.05385C44.8045 4.6455 45.8137 4.44132 46.9764 4.44132C48.1611 4.44132 49.1758 4.6455 50.0204 5.05385C50.8651 5.46221 51.5123 6.07998 51.962 6.90717C52.4227 7.72388 52.6531 8.76048 52.6531 10.017C52.6531 11.263 52.4227 12.2996 51.962 13.1268C51.5123 13.9539 50.8651 14.5717 50.0204 14.9801C49.1758 15.3884 48.1611 15.5926 46.9764 15.5926ZM46.9764 14.1005C47.5797 14.1005 48.1118 14.022 48.5725 13.8649C49.0442 13.7079 49.439 13.4671 49.7572 13.1425C50.0862 12.8179 50.333 12.4095 50.4976 11.9174C50.6731 11.4253 50.7609 10.8546 50.7609 10.2054V9.8599C50.7609 9.18978 50.6731 8.60865 50.4976 8.11653C50.333 7.62441 50.0862 7.21605 49.7572 6.89146C49.439 6.56687 49.0442 6.32604 48.5725 6.16898C48.1118 6.01192 47.5797 5.93339 46.9764 5.93339C46.3841 5.93339 45.8521 6.01192 45.3804 6.16898C44.9197 6.32604 44.5248 6.56687 44.1957 6.89146C43.8776 7.21605 43.6362 7.62441 43.4717 8.11653C43.3072 8.60865 43.2249 9.18978 43.2249 9.8599V10.2054C43.2249 10.8546 43.3072 11.4253 43.4717 11.9174C43.6362 12.4095 43.8776 12.8179 44.1957 13.1425C44.5248 13.4671 44.9197 13.7079 45.3804 13.8649C45.8521 14.022 46.3841 14.1005 46.9764 14.1005Z" fill="currentColor"/>
<path d="M55.5183 6.20145V15.4041H57.3612V10.8179H62.9884V9.32585H57.3612V6.7662C57.3612 6.41899 57.656 6.13752 58.0198 6.13752H63.5808V4.62974H57.1649C56.2555 4.62974 55.5183 5.33342 55.5183 6.20145Z" fill="currentColor"/>
<path d="M69.0821 15.4041V6.13752H65.347V4.62974H74.6929V6.13752H70.9249V15.4041H69.0821Z" fill="currentColor"/>
<path fill-rule="evenodd" clip-rule="evenodd" d="M77.1333 4.62974V15.4041H78.9761V11.242H82.8922L85.0312 15.4041H87.0386L84.6857 10.9436C85.3109 10.6923 85.7936 10.2996 86.1336 9.76562C86.4737 9.23161 86.6437 8.60337 86.6437 7.88089C86.6437 7.23171 86.5121 6.66629 86.2488 6.18464C85.9855 5.69252 85.5906 5.31034 85.0641 5.0381C84.5376 4.76586 83.8739 4.62974 83.0732 4.62974H77.1333ZM82.9251 9.76562H78.9761V6.13752H82.9251C83.331 6.13752 83.671 6.20558 83.9453 6.3417C84.2195 6.47782 84.4279 6.67676 84.5705 6.93853C84.7131 7.18983 84.7844 7.49871 84.7844 7.86519C84.7844 8.46202 84.6199 8.92796 84.2908 9.26302C83.9727 9.59809 83.5174 9.76562 82.9251 9.76562Z" fill="currentColor"/>
<path d="M92.6356 15.4041V10.975L88.2424 4.62974H90.3485L93.5735 9.40438H93.6558L96.8479 4.62974H98.8717L94.4785 10.975V15.4041H92.6356Z" fill="currentColor"/>
<path d="M100.287 14.5403V15.4041H109.617V13.8963H102.986L109.469 5.49358V4.62974H100.715V6.13752H106.737L100.287 14.5403Z" fill="currentColor"/>
<path d="M113.941 15.4041C113.032 15.4041 112.295 14.7004 112.295 13.8324V6.20145C112.295 5.33342 113.032 4.62974 113.941 4.62974H121.048V6.13752H114.796C114.433 6.13752 114.138 6.41899 114.138 6.7662V9.13738H120.324V10.6452H114.138V13.2676C114.138 13.6148 114.433 13.8963 114.796 13.8963H121.147V15.4041H113.941Z" fill="currentColor"/>
<path d="M124.122 15.4041V4.62974H125.899L131.675 12.2786H131.757V4.62974H133.534V15.4041H131.823L125.982 7.6453H125.899V15.4041H124.122Z" fill="currentColor"/>
</svg>
