<svg viewBox="0 0 198 185" fill="none" xmlns="http://www.w3.org/2000/svg">
<path d="M142.312 170.547H55.6875C52.4054 170.547 49.2578 169.329 46.9371 167.16C44.6163 164.992 43.3125 162.051 43.3125 158.984V26.0156C43.3125 22.9491 44.6163 20.0081 46.9371 17.8397C49.2578 15.6713 52.4054 14.4531 55.6875 14.4531H112.427C114.052 14.4519 115.662 14.75 117.165 15.3303C118.667 15.9106 120.032 16.7618 121.182 17.8352L151.068 45.7586C152.217 46.8332 153.128 48.1087 153.749 49.5124C154.37 50.916 154.689 52.4202 154.688 53.9391V158.984C154.688 162.051 153.384 164.992 151.063 167.16C148.742 169.329 145.595 170.547 142.312 170.547Z" fill="white"/>
<path d="M146.953 173.438C159.768 173.438 170.156 163.731 170.156 151.758C170.156 139.784 159.768 130.078 146.953 130.078C134.138 130.078 123.75 139.784 123.75 151.758C123.75 163.731 134.138 173.438 146.953 173.438Z" fill="#D0E6A5"/>
<path d="M120.656 20.2344V36.1328C120.656 40.3493 122.449 44.3932 125.64 47.3747C128.831 50.3562 133.159 52.0312 137.672 52.0312H154.688" fill="black"/>
<path d="M99 43.3594H64.9688C64.1482 43.3594 63.3613 43.0548 62.7811 42.5127C62.2009 41.9706 61.875 41.2354 61.875 40.4688C61.875 39.7021 62.2009 38.9669 62.7811 38.4248C63.3613 37.8827 64.1482 37.5781 64.9688 37.5781H99C99.8205 37.5781 100.607 37.8827 101.188 38.4248C101.768 38.9669 102.094 39.7021 102.094 40.4688C102.094 41.2354 101.768 41.9706 101.188 42.5127C100.607 43.0548 99.8205 43.3594 99 43.3594Z" fill="black"/>
<path d="M108.281 63.5938H64.9688C64.1482 63.5938 63.3613 63.2892 62.7811 62.7471C62.2009 62.205 61.875 61.4698 61.875 60.7031C61.875 59.9365 62.2009 59.2012 62.7811 58.6591C63.3613 58.117 64.1482 57.8125 64.9688 57.8125H108.281C109.102 57.8125 109.889 58.117 110.469 58.6591C111.049 59.2012 111.375 59.9365 111.375 60.7031C111.375 61.4698 111.049 62.205 110.469 62.7471C109.889 63.2892 109.102 63.5938 108.281 63.5938Z" fill="black"/>
<path d="M133.031 83.8281H64.9688C64.1482 83.8281 63.3613 83.5236 62.7811 82.9815C62.2009 82.4394 61.875 81.7041 61.875 80.9375C61.875 80.1709 62.2009 79.4356 62.7811 78.8935C63.3613 78.3514 64.1482 78.0469 64.9688 78.0469H133.031C133.852 78.0469 134.639 78.3514 135.219 78.8935C135.799 79.4356 136.125 80.1709 136.125 80.9375C136.125 81.7041 135.799 82.4394 135.219 82.9815C134.639 83.5236 133.852 83.8281 133.031 83.8281Z" fill="black"/>
<path d="M133.031 104.062H64.9688C64.1482 104.062 63.3613 103.758 62.7811 103.216C62.2009 102.674 61.875 101.939 61.875 101.172C61.875 100.405 62.2009 99.67 62.7811 99.1279C63.3613 98.5858 64.1482 98.2812 64.9688 98.2812H133.031C133.852 98.2812 134.639 98.5858 135.219 99.1279C135.799 99.67 136.125 100.405 136.125 101.172C136.125 101.939 135.799 102.674 135.219 103.216C134.639 103.758 133.852 104.062 133.031 104.062Z" fill="black"/>
<path d="M123.75 124.297H64.9688C64.1482 124.297 63.3613 123.992 62.7811 123.45C62.2009 122.908 61.875 122.173 61.875 121.406C61.875 120.64 62.2009 119.904 62.7811 119.362C63.3613 118.82 64.1482 118.516 64.9688 118.516H123.75C124.571 118.516 125.357 118.82 125.938 119.362C126.518 119.904 126.844 120.64 126.844 121.406C126.844 122.173 126.518 122.908 125.938 123.45C125.357 123.992 124.571 124.297 123.75 124.297Z" fill="black"/>
<path d="M108.281 144.531H64.9688C64.1482 144.531 63.3613 144.227 62.7811 143.685C62.2009 143.143 61.875 142.407 61.875 141.641C61.875 140.874 62.2009 140.139 62.7811 139.597C63.3613 139.055 64.1482 138.75 64.9688 138.75H108.281C109.102 138.75 109.889 139.055 110.469 139.597C111.049 140.139 111.375 140.874 111.375 141.641C111.375 142.407 111.049 143.143 110.469 143.685C109.889 144.227 109.102 144.531 108.281 144.531Z" fill="black"/>
<path d="M114.469 173.438H55.6875C51.5849 173.438 47.6504 171.915 44.7494 169.204C41.8485 166.494 40.2188 162.818 40.2188 158.984V26.0156C40.2188 22.1824 41.8485 18.5062 44.7494 15.7957C47.6504 13.0853 51.5849 11.5625 55.6875 11.5625H112.427C114.46 11.5591 116.473 11.9301 118.352 12.6543C120.232 13.3784 121.94 14.4415 123.379 15.7828L153.264 43.7063C154.7 45.051 155.838 46.6468 156.613 48.4027C157.388 50.1585 157.785 52.0398 157.781 53.9391V115.625C157.781 116.392 157.455 117.127 156.875 117.669C156.295 118.211 155.508 118.516 154.688 118.516C153.867 118.516 153.08 118.211 152.5 117.669C151.92 117.127 151.594 116.392 151.594 115.625V53.9391C151.592 51.6399 150.612 49.4357 148.871 47.811L118.986 19.8875C117.247 18.2608 114.888 17.3458 112.427 17.3438H55.6875C53.226 17.3438 50.8652 18.2574 49.1247 19.8837C47.3841 21.51 46.4062 23.7157 46.4062 26.0156V158.984C46.4062 161.284 47.3841 163.49 49.1247 165.116C50.8652 166.743 53.226 167.656 55.6875 167.656H114.469C115.289 167.656 116.076 167.961 116.656 168.503C117.237 169.045 117.562 169.78 117.562 170.547C117.562 171.314 117.237 172.049 116.656 172.591C116.076 173.133 115.289 173.438 114.469 173.438Z" fill="black"/>
<path d="M139.219 54.9219H126.844C122.741 54.9219 118.807 53.3991 115.906 50.6887C113.005 47.9782 111.375 44.302 111.375 40.4688V28.9062C111.375 28.1396 111.701 27.4044 112.281 26.8623C112.861 26.3202 113.648 26.0156 114.469 26.0156C115.289 26.0156 116.076 26.3202 116.656 26.8623C117.237 27.4044 117.562 28.1396 117.562 28.9062V40.4688C117.562 42.7687 118.54 44.9744 120.281 46.6007C122.021 48.227 124.382 49.1406 126.844 49.1406H139.219C140.039 49.1406 140.826 49.4452 141.406 49.9873C141.987 50.5294 142.312 51.2646 142.312 52.0312C142.312 52.7979 141.987 53.5331 141.406 54.0752C140.826 54.6173 140.039 54.9219 139.219 54.9219Z" fill="black"/>
<path d="M146.953 176.328C141.752 176.328 136.668 174.887 132.343 172.187C128.019 169.487 124.648 165.65 122.658 161.16C120.668 156.671 120.147 151.731 121.162 146.964C122.176 142.198 124.681 137.82 128.358 134.384C132.036 130.948 136.722 128.608 141.823 127.66C146.924 126.712 152.211 127.198 157.017 129.058C161.822 130.917 165.929 134.067 168.818 138.107C171.708 142.148 173.25 146.898 173.25 151.758C173.242 158.272 170.469 164.517 165.539 169.123C160.609 173.729 153.925 176.32 146.953 176.328ZM146.953 132.969C142.976 132.969 139.088 134.071 135.781 136.135C132.474 138.2 129.897 141.134 128.374 144.568C126.852 148.001 126.454 151.779 127.23 155.423C128.006 159.068 129.921 162.416 132.734 165.044C135.546 167.671 139.129 169.461 143.03 170.186C146.931 170.911 150.974 170.539 154.649 169.117C158.323 167.695 161.464 165.286 163.673 162.196C165.883 159.107 167.063 155.474 167.063 151.758C167.054 146.777 164.933 142.002 161.164 138.48C157.394 134.958 152.284 132.976 146.953 132.969Z" fill="#D0E6A5"/>
<path d="M143.859 160.43C143.452 160.432 143.049 160.359 142.672 160.215C142.295 160.071 141.952 159.859 141.663 159.591L135.475 153.81C134.893 153.266 134.565 152.528 134.565 151.758C134.565 150.988 134.893 150.25 135.475 149.705C136.058 149.161 136.848 148.855 137.672 148.855C138.496 148.855 139.286 149.161 139.868 149.705L143.859 153.463L154.038 143.924C154.62 143.38 155.41 143.074 156.234 143.074C157.058 143.074 157.848 143.38 158.431 143.924C159.013 144.469 159.341 145.207 159.341 145.977C159.341 146.746 159.013 147.485 158.431 148.029L146.056 159.591C145.767 159.859 145.424 160.071 145.047 160.215C144.67 160.359 144.267 160.432 143.859 160.43Z" fill="black"/>
</svg>
